<?xml version="1.0" encoding="utf-8"?>
<!-- Generator: Adobe Illustrator 17.0.0, SVG Export Plug-In . SVG Version: 6.00 Build 0)  -->
<!DOCTYPE svg PUBLIC "-//W3C//DTD SVG 1.1//EN" "http://www.w3.org/Graphics/SVG/1.1/DTD/svg11.dtd">
<svg version="1.1" xmlns="http://www.w3.org/2000/svg" xmlns:xlink="http://www.w3.org/1999/xlink" x="0px" y="0px" width="64px"
	 height="64px" viewBox="0 0 64 64" enable-background="new 0 0 64 64" xml:space="preserve">
<g id="cloud">
</g>
<g id="align-right">
</g>
<g id="align-center">
</g>
<g id="align-left">
</g>
<g id="list-bulleted">
</g>
<g id="list-numbered">
</g>
<g id="indent-decrease">
</g>
<g id="indent-increase">
</g>
<g id="underline">
</g>
<g id="italic">
</g>
<g id="bold">
</g>
<g id="library">
</g>
<g id="memory">
</g>
<g id="grid-two-up">
</g>
<g id="desktop">
</g>
<g id="person">
</g>
<g id="close">
</g>
<g id="check">
</g>
<g id="format-clear">
</g>
<g id="chevron-left">
</g>
<g id="chevron-right">
</g>
<g id="extension">
</g>
<g id="list">
</g>
<g id="briefcase">
	<path fill-rule="evenodd" clip-rule="evenodd" d="M56,62.063H8c-4.418,0-8-3.582-8-8V32.979c0.335,0.636,0.981,1.084,1.75,1.084H62
		c1.104,0,2-0.895,2-2v22.001C64,58.481,60.419,62.063,56,62.063z M62,30.062H1.75c-0.769,0-1.415,0.448-1.75,1.084v-9.083
		c0-4.418,3.582-8,8-8h8c0-2.062,0-4.498,0-6.126c0-3.314,2.686-6,6-6H42c3.314,0,6,2.686,6,6c0,1.627,0,4.063,0,6.126h8
		c4.418,0,8,3.582,8,8v9.999C64,30.958,63.105,30.062,62,30.062z M40,11.063c0-0.552-1.194-1-2.667-1H26.667
		c-1.472,0-2.666,0.448-2.666,1v2c0,0.552,1.194,1,2.666,1h10.667c1.473,0,2.667-0.448,2.667-1V11.063z"/>
</g>
<g id="layout">
</g>
<g id="schedule">
</g>
<g id="remove">
</g>
<g id="power">
</g>
<g id="assignment">
</g>
<g id="insert-emoticon">
</g>
<g id="lock-locked">
</g>
<g id="thumb-up">
</g>
<g id="share">
</g>
<g id="upload">
</g>
<g id="download">
</g>
<g id="reply">
</g>
<g id="add">
</g>
<g id="edit">
</g>
<g id="paperclip">
</g>
<g id="attach-file">
</g>
<g id="replay">
</g>
<g id="star">
</g>
<g id="media">
</g>
<g id="link-intact">
</g>
<g id="movie">
</g>
<g id="audio">
</g>
<g id="favorite">
</g>
<g id="settings">
</g>
<g id="image">
</g>
<g id="videocamera">
</g>
<g id="tag">
</g>
<g id="infomation">
</g>
<g id="inbox">
</g>
<g id="menu">
</g>
<g id="search">
</g>
<g id="notifications">
</g>
<g id="messenge">
</g>
<g id="email">
</g>
<g id="trash">
</g>
<g id="folder">
</g>
<g id="file">
</g>
<g id="vertical-chart">
</g>
<g id="grid-three-up">
</g>
<g id="calendar">
</g>
<g id="plugin">
</g>
<g id="dashboard">
</g>
</svg>
