<svg xmlns="http://www.w3.org/2000/svg" width="64" height="64" viewBox="0 0 64 64"><path fill-rule="evenodd" clip-rule="evenodd" d="M56,62.063H8c-4.418,0-8-3.582-8-8V32.979c0.335,0.636,0.981,1.084,1.75,1.084H62 c1.104,0,2-0.895,2-2v22.001C64,58.481,60.419,62.063,56,62.063z M62,30.062H1.75c-0.769,0-1.415,0.448-1.75,1.084v-9.083 c0-4.418,3.582-8,8-8h8c0-2.062,0-4.498,0-6.126c0-3.314,2.686-6,6-6H42c3.314,0,6,2.686,6,6c0,1.627,0,4.063,0,6.126h8 c4.418,0,8,3.582,8,8v9.999C64,30.958,63.105,30.062,62,30.062z M40,11.063c0-0.552-1.194-1-2.667-1H26.667 c-1.472,0-2.666,0.448-2.666,1v2c0,0.552,1.194,1,2.666,1h10.667c1.473,0,2.667-0.448,2.667-1V11.063z"/></svg>