<?xml version="1.0" encoding="utf-8"?>
<!-- Generator: Adobe Illustrator 17.0.0, SVG Export Plug-In . SVG Version: 6.00 Build 0)  -->
<!DOCTYPE svg PUBLIC "-//W3C//DTD SVG 1.1//EN" "http://www.w3.org/Graphics/SVG/1.1/DTD/svg11.dtd">
<svg version="1.1" xmlns="http://www.w3.org/2000/svg" xmlns:xlink="http://www.w3.org/1999/xlink" x="0px" y="0px" width="64px"
	 height="64px" viewBox="0 0 64 64" enable-background="new 0 0 64 64" xml:space="preserve">
<g id="thumb-down">
</g>
<g id="thumb-up">
</g>
<g id="star-outline">
</g>
<g id="star-half">
</g>
<g id="star">
</g>
<g id="favorite-outline">
</g>
<g id="favorite">
</g>
<g id="warning">
</g>
<g id="info">
</g>
<g id="info-circle">
</g>
<g id="help">
</g>
<g id="help-circle">
</g>
<g id="alert">
</g>
<g id="alert-circle">
</g>
<g id="remove">
</g>
<g id="remove-circle">
</g>
<g id="add">
</g>
<g id="add-circle">
</g>
<g id="close-mini">
</g>
<g id="close">
</g>
<g id="close-circle">
</g>
<g id="check-mini">
</g>
<g id="check">
</g>
<g id="check-circle">
	<g>
		<path fill-rule="evenodd" clip-rule="evenodd" d="M32,64C14.327,64,0,49.673,0,32C0,14.327,14.327,0,32,0
			c17.673,0,32,14.327,32,32C64,49.673,49.673,64,32,64z M50.543,21.452c-1.461-1.452-3.83-1.452-5.288,0l-17.25,17.09l-5.252-5.085
			c-1.463-1.452-3.83-1.452-5.29,0c-1.463,1.452-1.463,3.807,0,5.259l7.214,6.98c0.164,0.294,0.313,0.596,0.564,0.846
			c0.768,0.762,1.782,1.1,2.786,1.062c1.014,0.046,2.041-0.286,2.815-1.056c0.277-0.276,0.451-0.605,0.622-0.933l19.079-18.902
			C51.999,25.26,51.999,22.905,50.543,21.452z"/>
	</g>
</g>
<g id="triangle-up">
</g>
<g id="triangle-down">
</g>
<g id="triangle-right">
</g>
<g id="triangle-left">
</g>
<g id="sort-vertical">
</g>
<g id="dropleft">
</g>
<g id="dropright">
</g>
<g id="dropup">
</g>
<g id="dropdown">
</g>
<g id="arrow-right">
</g>
<g id="arrow-left">
</g>
<g id="chevron-down-mini">
</g>
<g id="chevron-up-mini">
</g>
<g id="chevron-down">
</g>
<g id="chevron-up">
</g>
<g id="chevron-right-mini">
</g>
<g id="chevron-left-mini">
</g>
<g id="chevron-right">
</g>
<g id="chevron-left">
</g>
<g id="code-unfold">
</g>
<g id="code-working">
</g>
<g id="code">
</g>
<g id="quote-left">
</g>
<g id="quote-right">
</g>
<g id="emoticon">
</g>
<g id="list">
</g>
<g id="list-bulleted">
</g>
<g id="list-numbered">
</g>
<g id="align-right">
</g>
<g id="align-center">
</g>
<g id="align-left">
</g>
<g id="align-justify">
</g>
<g id="indent-decrease">
</g>
<g id="indent-increase">
</g>
<g id="link-intact">
</g>
<g id="paperclip">
</g>
<g id="attach-file">
</g>
<g id="table">
</g>
<g id="text-type">
</g>
<g id="format-clear">
</g>
<g id="underline">
</g>
<g id="italic">
</g>
<g id="bold">
</g>
<g id="text">
</g>
<g id="图层_1">
</g>
</svg>
