<?xml version="1.0" encoding="utf-8"?>
<!-- Generator: Adobe Illustrator 17.0.0, SVG Export Plug-In . SVG Version: 6.00 Build 0)  -->
<!DOCTYPE svg PUBLIC "-//W3C//DTD SVG 1.1//EN" "http://www.w3.org/Graphics/SVG/1.1/DTD/svg11.dtd">
<svg version="1.1" xmlns="http://www.w3.org/2000/svg" xmlns:xlink="http://www.w3.org/1999/xlink" x="0px" y="0px" width="64px"
	 height="64px" viewBox="0 0 64 64" enable-background="new 0 0 64 64" xml:space="preserve">
<g id="thumb-down">
</g>
<g id="thumb-up">
</g>
<g id="star-outline">
</g>
<g id="star-half">
</g>
<g id="star">
</g>
<g id="favorite-outline">
</g>
<g id="favorite">
</g>
<g id="warning">
</g>
<g id="info">
</g>
<g id="info-circle">
</g>
<g id="help">
</g>
<g id="help-circle">
</g>
<g id="alert">
</g>
<g id="alert-circle">
</g>
<g id="remove">
</g>
<g id="remove-circle">
</g>
<g id="add">
</g>
<g id="add-circle">
</g>
<g id="close-mini">
</g>
<g id="close">
</g>
<g id="close-circle">
</g>
<g id="check-mini">
</g>
<g id="check">
</g>
<g id="check-circle">
</g>
<g id="triangle-up">
</g>
<g id="triangle-down">
</g>
<g id="triangle-right">
</g>
<g id="triangle-left">
</g>
<g id="sort-vertical">
</g>
<g id="dropleft">
</g>
<g id="dropright">
</g>
<g id="dropup">
</g>
<g id="dropdown">
</g>
<g id="arrow-right">
</g>
<g id="arrow-left">
</g>
<g id="chevron-down-mini">
</g>
<g id="chevron-up-mini">
</g>
<g id="chevron-down">
</g>
<g id="chevron-up">
</g>
<g id="chevron-right-mini">
</g>
<g id="chevron-left-mini">
</g>
<g id="chevron-right">
</g>
<g id="chevron-left">
</g>
<g id="code-unfold">
	<path fill-rule="evenodd" clip-rule="evenodd" d="M62.936,34.79c-0.262,0.263-0.577,0.424-0.887,0.592l-11.098,11.27
		c-1.448,1.46-3.797,1.46-5.246,0c-1.448-1.457-1.448-3.819,0-5.278l9.236-9.376L45.7,22.617c-1.45-1.455-1.45-3.818,0-5.276
		c1.448-1.453,3.798-1.453,5.246,0l11.08,11.249c0.321,0.17,0.646,0.34,0.916,0.611c0.768,0.773,1.1,1.797,1.054,2.809
		C64.034,33.012,63.697,34.024,62.936,34.79z M20.082,56.168L36.195,7.832h8.056L28.138,56.168H20.082z M9.397,31.997l9.527,9.527
		c1.499,1.501,1.499,3.929,0,5.428c-1.498,1.501-3.927,1.501-5.426,0L2.044,35.493c-0.331-0.175-0.665-0.348-0.944-0.626
		c-0.787-0.788-1.135-1.829-1.096-2.859c-0.048-1.04,0.295-2.094,1.09-2.889c0.287-0.287,0.63-0.468,0.973-0.646l11.435-11.437
		c1.499-1.495,3.929-1.495,5.427,0c1.499,1.499,1.499,3.929,0,5.426L9.397,31.997z"/>
</g>
<g id="code-working">
</g>
<g id="code">
</g>
<g id="quote-left">
</g>
<g id="quote-right">
</g>
<g id="emoticon">
</g>
<g id="list">
</g>
<g id="list-bulleted">
</g>
<g id="list-numbered">
</g>
<g id="align-right">
</g>
<g id="align-center">
</g>
<g id="align-left">
</g>
<g id="align-justify">
</g>
<g id="indent-decrease">
</g>
<g id="indent-increase">
</g>
<g id="link-intact">
</g>
<g id="paperclip">
</g>
<g id="attach-file">
</g>
<g id="table">
</g>
<g id="text-type">
</g>
<g id="format-clear">
</g>
<g id="underline">
</g>
<g id="italic">
</g>
<g id="bold">
</g>
<g id="text">
</g>
<g id="图层_1">
</g>
</svg>
