<?xml version="1.0" encoding="utf-8"?>
<!-- Generator: Adobe Illustrator 17.0.0, SVG Export Plug-In . SVG Version: 6.00 Build 0)  -->
<!DOCTYPE svg PUBLIC "-//W3C//DTD SVG 1.1//EN" "http://www.w3.org/Graphics/SVG/1.1/DTD/svg11.dtd">
<svg version="1.1" xmlns="http://www.w3.org/2000/svg" xmlns:xlink="http://www.w3.org/1999/xlink" x="0px" y="0px" width="64px"
	 height="64px" viewBox="0 0 64 64" enable-background="new 0 0 64 64" xml:space="preserve">
<g id="loop">
</g>
<g id="reload">
</g>
<g id="random">
</g>
<g id="musical">
</g>
<g id="stop">
</g>
<g id="play">
</g>
<g id="pause">
</g>
<g id="volume-off">
</g>
<g id="volume-low">
</g>
<g id="volume-high">
</g>
<g id="unlock">
</g>
<g id="lock">
</g>
<g id="wrench">
</g>
<g id="hammer">
</g>
<g id="settings">
</g>
<g id="memory">
</g>
<g id="extension">
</g>
<g id="plugin">
</g>
<g id="trash">
</g>
<g id="time">
</g>
<g id="calendar">
</g>
<g id="print">
</g>
<g id="file">
</g>
<g id="order">
</g>
<g id="clipboard">
</g>
<g id="folder">
</g>
<g id="camera">
</g>
<g id="video">
</g>
<g id="gallery">
</g>
<g id="image">
</g>
<g id="eye-close">
</g>
<g id="eye">
</g>
<g id="crop">
</g>
<g id="pencil">
</g>
<g id="edit">
</g>
<g id="replay">
</g>
<g id="graph-down">
</g>
<g id="graph-up">
</g>
<g id="sort-des">
</g>
<g id="sort-asc">
</g>
<g id="upload">
</g>
<g id="download">
</g>
<g id="zoom-out">
</g>
<g id="zoom-in">
</g>
<g id="search">
</g>
<g id="briefcase">
</g>
<g id="shopping-cart">
</g>
<g id="home">
</g>
<g id="pluse">
</g>
<g id="stats-bars">
</g>
<g id="pie-chart">
</g>
<g id="flag">
</g>
<g id="map">
</g>
<g id="globe">
	<path fill-rule="evenodd" clip-rule="evenodd" d="M32.001,64C14.328,64,0,49.673,0,32C0,14.327,14.328,0,32.001,0
		C49.673,0,64,14.327,64,32C64,49.673,49.673,64,32.001,64z M32,8C18.745,8,8.001,18.745,8.001,32c0,13.255,10.744,24,23.999,24
		s24-10.745,24-24C56,18.745,45.255,8,32,8z M32.001,52c-3.387,0-6.528-0.921-9.323-2.407C19.265,46.009,24.754,42.937,32,40
		c-2.75-1.588-19.195-12.578-16.059-19.817C19.583,15.244,25.394,12,32.001,12c4.524,0,8.651,1.559,12.002,4.092
		c0.425,4.631-1.641,7.337-4.422,8.963C31.567,16.674,28.889,27.488,28.001,28c-1.449,0.835,0,4,0,4s3.595,3.28,12,4
		c3.014,0.258,6.962,1.987,8,4c0.795,1.543-0.974,3.119-1.024,5.132C43.311,49.309,37.995,52,32.001,52z"/>
</g>
<g id="more-vertical">
</g>
<g id="more-horizontal">
</g>
<g id="power">
</g>
<g id="signal">
</g>
<g id="mobile">
</g>
<g id="desktop">
</g>
<g id="arrow-shrink">
</g>
<g id="arrow-expand">
</g>
<g id="contract">
</g>
<g id="expand">
</g>
<g id="fullscreen-exit">
</g>
<g id="fullscreen">
</g>
<g id="layout">
</g>
<g id="menu">
</g>
<g id="grid-4">
</g>
<g id="grid-9">
</g>
<g id="person-add">
</g>
<g id="persons">
</g>
<g id="user">
</g>
<g id="person">
</g>
<g id="draft">
</g>
<g id="email">
</g>
<g id="chat-room">
</g>
<g id="chat-text">
</g>
<g id="chat-working">
</g>
<g id="chat">
</g>
<g id="reply">
</g>
<g id="share">
</g>
<g id="library">
</g>
<g id="tag">
</g>
<g id="bookmark">
</g>
<g id="book">
</g>
<g id="bell">
</g>
<g id="cloud">
</g>
<g id="inbox">
</g>
<g id="dashboard">
</g>
</svg>
