<svg xmlns="http://www.w3.org/2000/svg" width="64" height="64" viewBox="0 0 64 64"><path fill-rule="evenodd" clip-rule="evenodd" d="M56,60h-8c-2.209,0-4-1.791-4-4v-8c0-2.209,1.791-4,4-4h8c2.209,0,4,1.791,4,4v8 C60,58.209,58.209,60,56,60z M56,40h-8c-2.209,0-4-1.791-4-4v-8c0-2.209,1.791-4,4-4h8c2.209,0,4,1.791,4,4v8 C60,38.209,58.209,40,56,40z M56,20h-8c-2.209,0-4-1.791-4-4V8c0-2.209,1.791-4,4-4h8c2.209,0,4,1.791,4,4v8 C60,18.209,58.209,20,56,20z M36,60h-8c-2.209,0-4-1.791-4-4v-8c0-2.209,1.791-4,4-4h8c2.209,0,4,1.791,4,4v8 C40,58.209,38.209,60,36,60z M36,40h-8c-2.209,0-4-1.791-4-4v-8c0-2.209,1.791-4,4-4h8c2.209,0,4,1.791,4,4v8 C40,38.209,38.209,40,36,40z M36,20h-8c-2.209,0-4-1.791-4-4V8c0-2.209,1.791-4,4-4h8c2.209,0,4,1.791,4,4v8 C40,18.209,38.209,20,36,20z M16,60H8c-2.209,0-4-1.791-4-4v-8c0-2.209,1.791-4,4-4h8c2.209,0,4,1.791,4,4v8 C20,58.209,18.209,60,16,60z M16,40H8c-2.209,0-4-1.791-4-4v-8c0-2.209,1.791-4,4-4h8c2.209,0,4,1.791,4,4v8 C20,38.209,18.209,40,16,40z M16,20H8c-2.209,0-4-1.791-4-4V8c0-2.209,1.791-4,4-4h8c2.209,0,4,1.791,4,4v8 C20,18.209,18.209,20,16,20z"/></svg>