<svg xmlns="http://www.w3.org/2000/svg" width="64" height="64" viewBox="0 0 64 64"><path fill-rule="evenodd" clip-rule="evenodd" d="M56,60.001H40c-2.209,0-4-1.792-4-4.001V39.999c0-2.208,1.791-4,4-4h16 c2.21,0,4,1.792,4,4V56C60,58.21,58.21,60.001,56,60.001z M56,27.999H40c-2.209,0-4-1.79-4-3.998V8.001 c0-2.211,1.791-4.002,4-4.002h16c2.21,0,4,1.792,4,4.002v16.001C60,26.21,58.21,27.999,56,27.999z M24,60.001H8 c-2.21,0-4-1.792-4-4.001V39.999c0-2.208,1.79-4,4-4h16c2.209,0,4,1.792,4,4V56C28,58.21,26.209,60.001,24,60.001z M24,27.999H8 c-2.21,0-4-1.79-4-3.998V8.001C4,5.79,5.79,3.999,8,3.999h16c2.209,0,4,1.792,4,4.002v16.001C28,26.21,26.209,27.999,24,27.999z"/></svg>