<?xml version="1.0" encoding="utf-8"?>
<!-- Generator: Adobe Illustrator 17.0.0, SVG Export Plug-In . SVG Version: 6.00 Build 0)  -->
<!DOCTYPE svg PUBLIC "-//W3C//DTD SVG 1.1//EN" "http://www.w3.org/Graphics/SVG/1.1/DTD/svg11.dtd">
<svg version="1.1" xmlns="http://www.w3.org/2000/svg" xmlns:xlink="http://www.w3.org/1999/xlink" x="0px" y="0px" width="64px"
	 height="64px" viewBox="0 0 64 64" enable-background="new 0 0 64 64" xml:space="preserve">
<g id="cloud">
</g>
<g id="align-right">
</g>
<g id="align-center">
</g>
<g id="align-left">
</g>
<g id="list-bulleted">
</g>
<g id="list-numbered">
</g>
<g id="indent-decrease">
</g>
<g id="indent-increase">
</g>
<g id="underline">
</g>
<g id="italic">
</g>
<g id="bold">
</g>
<g id="library">
</g>
<g id="memory">
</g>
<g id="grid-two-up">
</g>
<g id="desktop">
</g>
<g id="person">
</g>
<g id="close">
</g>
<g id="check">
</g>
<g id="format-clear">
</g>
<g id="chevron-left">
</g>
<g id="chevron-right">
</g>
<g id="extension">
</g>
<g id="list">
</g>
<g id="briefcase">
</g>
<g id="layout">
</g>
<g id="schedule">
</g>
<g id="remove">
</g>
<g id="power">
</g>
<g id="assignment">
</g>
<g id="insert-emoticon">
</g>
<g id="lock-locked">
</g>
<g id="thumb-up">
</g>
<g id="share">
</g>
<g id="upload">
</g>
<g id="download">
</g>
<g id="reply">
</g>
<g id="add">
</g>
<g id="edit">
</g>
<g id="paperclip">
</g>
<g id="attach-file">
</g>
<g id="replay">
</g>
<g id="star">
</g>
<g id="media">
</g>
<g id="link-intact">
</g>
<g id="movie">
</g>
<g id="audio">
</g>
<g id="favorite">
</g>
<g id="settings">
</g>
<g id="image">
</g>
<g id="videocamera">
</g>
<g id="tag">
</g>
<g id="infomation">
</g>
<g id="inbox">
</g>
<g id="menu">
</g>
<g id="search">
</g>
<g id="notifications">
</g>
<g id="messenge">
</g>
<g id="email">
</g>
<g id="trash">
</g>
<g id="folder">
</g>
<g id="file">
</g>
<g id="vertical-chart">
</g>
<g id="grid-three-up">
	<path fill-rule="evenodd" clip-rule="evenodd" d="M56,60h-8c-2.209,0-4-1.791-4-4v-8c0-2.209,1.791-4,4-4h8c2.209,0,4,1.791,4,4v8
		C60,58.209,58.209,60,56,60z M56,40h-8c-2.209,0-4-1.791-4-4v-8c0-2.209,1.791-4,4-4h8c2.209,0,4,1.791,4,4v8
		C60,38.209,58.209,40,56,40z M56,20h-8c-2.209,0-4-1.791-4-4V8c0-2.209,1.791-4,4-4h8c2.209,0,4,1.791,4,4v8
		C60,18.209,58.209,20,56,20z M36,60h-8c-2.209,0-4-1.791-4-4v-8c0-2.209,1.791-4,4-4h8c2.209,0,4,1.791,4,4v8
		C40,58.209,38.209,60,36,60z M36,40h-8c-2.209,0-4-1.791-4-4v-8c0-2.209,1.791-4,4-4h8c2.209,0,4,1.791,4,4v8
		C40,38.209,38.209,40,36,40z M36,20h-8c-2.209,0-4-1.791-4-4V8c0-2.209,1.791-4,4-4h8c2.209,0,4,1.791,4,4v8
		C40,18.209,38.209,20,36,20z M16,60H8c-2.209,0-4-1.791-4-4v-8c0-2.209,1.791-4,4-4h8c2.209,0,4,1.791,4,4v8
		C20,58.209,18.209,60,16,60z M16,40H8c-2.209,0-4-1.791-4-4v-8c0-2.209,1.791-4,4-4h8c2.209,0,4,1.791,4,4v8
		C20,38.209,18.209,40,16,40z M16,20H8c-2.209,0-4-1.791-4-4V8c0-2.209,1.791-4,4-4h8c2.209,0,4,1.791,4,4v8
		C20,18.209,18.209,20,16,20z"/>
</g>
<g id="calendar">
</g>
<g id="plugin">
</g>
<g id="dashboard">
</g>
</svg>
