<?xml version="1.0" encoding="utf-8"?>
<!-- Generator: Adobe Illustrator 17.0.0, SVG Export Plug-In . SVG Version: 6.00 Build 0)  -->
<!DOCTYPE svg PUBLIC "-//W3C//DTD SVG 1.1//EN" "http://www.w3.org/Graphics/SVG/1.1/DTD/svg11.dtd">
<svg version="1.1" xmlns="http://www.w3.org/2000/svg" xmlns:xlink="http://www.w3.org/1999/xlink" x="0px" y="0px" width="64px"
	 height="64px" viewBox="0 0 64 64" enable-background="new 0 0 64 64" xml:space="preserve">
<g id="thumb-down">
</g>
<g id="thumb-up">
</g>
<g id="star-outline">
</g>
<g id="star-half">
</g>
<g id="star">
</g>
<g id="favorite-outline">
</g>
<g id="favorite">
</g>
<g id="warning">
</g>
<g id="info">
</g>
<g id="info-circle">
</g>
<g id="help">
	<path fill-rule="evenodd" clip-rule="evenodd" d="M44.505,29.222c-0.37,0.642-0.866,1.305-1.565,1.996
		c-0.086,0.086-0.186,0.154-0.274,0.238c-0.738,0.695-1.685,1.414-2.815,2.152c-0.082,0.049-0.143,0.124-0.225,0.172v-0.022
		c-1.142,0.731-2.416,1.474-4,2.242c0,5.938,0,7.597,0,8c0,0-4,0-8,0c0-9.468,2.51-14.138,5.884-16.264
		c3.375-2.125,6.116-3.364,6.116-7.736c0-4.418-3.582-8-8-8c-3.626,0-6.654,2.428-7.635,5.736l-0.039-0.017
		C23.304,19.058,21.961,20,20.375,20c-2.209,0-4-1.791-4-4c0-0.52,0.115-1.01,0.296-1.465l-0.022-0.01
		C18.891,8.397,24.721,4,31.625,4c8.836,0,16,7.163,16,16C47.625,23.483,46.405,26.611,44.505,29.222z M35.625,60h-8v-8h8V60z"/>
</g>
<g id="help-circle">
</g>
<g id="alert">
</g>
<g id="alert-circle">
</g>
<g id="remove">
</g>
<g id="remove-circle">
</g>
<g id="add">
</g>
<g id="add-circle">
</g>
<g id="close-mini">
</g>
<g id="close">
</g>
<g id="close-circle">
</g>
<g id="check-mini">
</g>
<g id="check">
</g>
<g id="check-circle">
</g>
<g id="triangle-up">
</g>
<g id="triangle-down">
</g>
<g id="triangle-right">
</g>
<g id="triangle-left">
</g>
<g id="sort-vertical">
</g>
<g id="dropleft">
</g>
<g id="dropright">
</g>
<g id="dropup">
</g>
<g id="dropdown">
</g>
<g id="arrow-right">
</g>
<g id="arrow-left">
</g>
<g id="chevron-down-mini">
</g>
<g id="chevron-up-mini">
</g>
<g id="chevron-down">
</g>
<g id="chevron-up">
</g>
<g id="chevron-right-mini">
</g>
<g id="chevron-left-mini">
</g>
<g id="chevron-right">
</g>
<g id="chevron-left">
</g>
<g id="code-unfold">
</g>
<g id="code-working">
</g>
<g id="code">
</g>
<g id="quote-left">
</g>
<g id="quote-right">
</g>
<g id="emoticon">
</g>
<g id="list">
</g>
<g id="list-bulleted">
</g>
<g id="list-numbered">
</g>
<g id="align-right">
</g>
<g id="align-center">
</g>
<g id="align-left">
</g>
<g id="align-justify">
</g>
<g id="indent-decrease">
</g>
<g id="indent-increase">
</g>
<g id="link-intact">
</g>
<g id="paperclip">
</g>
<g id="attach-file">
</g>
<g id="table">
</g>
<g id="text-type">
</g>
<g id="format-clear">
</g>
<g id="underline">
</g>
<g id="italic">
</g>
<g id="bold">
</g>
<g id="text">
</g>
<g id="图层_1">
</g>
</svg>
