<?xml version="1.0" encoding="utf-8"?>
<!-- Generator: Adobe Illustrator 17.0.0, SVG Export Plug-In . SVG Version: 6.00 Build 0)  -->
<!DOCTYPE svg PUBLIC "-//W3C//DTD SVG 1.1//EN" "http://www.w3.org/Graphics/SVG/1.1/DTD/svg11.dtd">
<svg version="1.1" xmlns="http://www.w3.org/2000/svg" xmlns:xlink="http://www.w3.org/1999/xlink" x="0px" y="0px" width="64px"
	 height="64px" viewBox="0 0 64 64" enable-background="new 0 0 64 64" xml:space="preserve">
<g id="thumb-down">
</g>
<g id="thumb-up">
</g>
<g id="star-outline">
</g>
<g id="star-half">
</g>
<g id="star">
</g>
<g id="favorite-outline">
</g>
<g id="favorite">
</g>
<g id="warning">
</g>
<g id="info">
</g>
<g id="info-circle">
</g>
<g id="help">
</g>
<g id="help-circle">
</g>
<g id="alert">
</g>
<g id="alert-circle">
</g>
<g id="remove">
</g>
<g id="remove-circle">
</g>
<g id="add">
</g>
<g id="add-circle">
</g>
<g id="close-mini">
</g>
<g id="close">
</g>
<g id="close-circle">
</g>
<g id="check-mini">
</g>
<g id="check">
</g>
<g id="check-circle">
</g>
<g id="triangle-up">
</g>
<g id="triangle-down">
</g>
<g id="triangle-right">
</g>
<g id="triangle-left">
</g>
<g id="sort-vertical">
</g>
<g id="dropleft">
</g>
<g id="dropright">
</g>
<g id="dropup">
</g>
<g id="dropdown">
</g>
<g id="arrow-right">
</g>
<g id="arrow-left">
</g>
<g id="chevron-down-mini">
</g>
<g id="chevron-up-mini">
</g>
<g id="chevron-down">
</g>
<g id="chevron-up">
</g>
<g id="chevron-right-mini">
</g>
<g id="chevron-left-mini">
</g>
<g id="chevron-right">
</g>
<g id="chevron-left">
</g>
<g id="code-unfold">
</g>
<g id="code-working">
</g>
<g id="code">
</g>
<g id="quote-left">
</g>
<g id="quote-right">
</g>
<g id="emoticon">
</g>
<g id="list">
</g>
<g id="list-bulleted">
</g>
<g id="list-numbered">
</g>
<g id="align-right">
</g>
<g id="align-center">
</g>
<g id="align-left">
</g>
<g id="align-justify">
</g>
<g id="indent-decrease">
</g>
<g id="indent-increase">
</g>
<g id="link-intact">
	<path fill-rule="evenodd" clip-rule="evenodd" d="M57.321,29.186L46.067,40.44c-5.439,5.438-14.256,5.438-19.694,0l-1.407-1.407
		l5.627-5.627L32,34.813c2.331,2.331,6.109,2.331,8.44,0L51.694,23.56c2.331-2.331,2.331-6.11,0-8.441l-2.813-2.813
		c-2.331-2.331-6.109-2.331-8.44,0l-1.407,1.407l-5.627-5.627l1.407-1.407c5.438-5.438,14.256-5.438,19.694,0l2.813,2.813
		C62.76,14.931,62.76,23.748,57.321,29.186z M39.034,24.966l-5.627,5.627L32,29.186c-2.331-2.33-6.109-2.33-8.44,0L12.306,40.44
		c-2.331,2.331-2.331,6.11,0,8.44l2.813,2.813c2.331,2.331,6.11,2.331,8.441,0l1.407-1.407l5.627,5.627l-1.407,1.407
		c-5.438,5.439-14.256,5.439-19.694,0l-2.813-2.813c-5.439-5.438-5.439-14.256,0-19.694L17.933,23.56
		c5.439-5.439,14.256-5.439,19.694,0L39.034,24.966z"/>
</g>
<g id="paperclip">
</g>
<g id="attach-file">
</g>
<g id="table">
</g>
<g id="text-type">
</g>
<g id="format-clear">
</g>
<g id="underline">
</g>
<g id="italic">
</g>
<g id="bold">
</g>
<g id="text">
</g>
<g id="图层_1">
</g>
</svg>
