<?xml version="1.0" encoding="utf-8"?>
<!-- Generator: Adobe Illustrator 17.0.0, SVG Export Plug-In . SVG Version: 6.00 Build 0)  -->
<!DOCTYPE svg PUBLIC "-//W3C//DTD SVG 1.1//EN" "http://www.w3.org/Graphics/SVG/1.1/DTD/svg11.dtd">
<svg version="1.1" xmlns="http://www.w3.org/2000/svg" xmlns:xlink="http://www.w3.org/1999/xlink" x="0px" y="0px" width="64px"
	 height="64px" viewBox="0 0 64 64" enable-background="new 0 0 64 64" xml:space="preserve">
<g id="loop">
	<g>
		<path fill-rule="evenodd" clip-rule="evenodd" d="M59.987,63.944c-2.128,0.009-4.004-1.89-4.013-3.994v-6.986
			C50.126,59.663,41.594,63.953,32,63.953c-16.291,0-29.708-12.201-31.677-27.959h8.115c1.91,11.324,11.695,19.97,23.562,19.97
			c8.85,0,16.493-4.852,20.644-11.988H39.922c-2.096,0.009-4.002-1.786-4.013-3.994c-0.008-2.199,1.898-3.967,3.99-3.988h23.663
			c-0.089,0.683-0.073,1.397-0.202,2.066c0.367,0.586,0.638,1.223,0.641,1.922V59.95C64.006,62.055,62.113,63.935,59.987,63.944z
			 M32,8.036c-8.85,0-16.494,4.852-20.644,11.988h12.722c2.097-0.009,4.003,1.786,4.014,3.994c0.008,2.2-1.899,3.967-3.991,3.989
			H0.439c0.089-0.683,0.073-1.397,0.202-2.066C0.274,25.354,0.003,24.716,0,24.017V4.049c-0.006-2.104,1.887-3.984,4.013-3.993
			c2.128-0.009,4.004,1.889,4.013,3.993v6.987C13.874,4.337,22.406,0.047,32,0.047c16.291,0,29.707,12.201,31.677,27.959h-8.115
			C53.652,16.682,43.867,8.036,32,8.036z"/>
	</g>
</g>
<g id="reload">
</g>
<g id="random">
</g>
<g id="musical">
</g>
<g id="stop">
</g>
<g id="play">
</g>
<g id="pause">
</g>
<g id="volume-off">
</g>
<g id="volume-low">
</g>
<g id="volume-high">
</g>
<g id="unlock">
</g>
<g id="lock">
</g>
<g id="wrench">
</g>
<g id="hammer">
</g>
<g id="settings">
</g>
<g id="memory">
</g>
<g id="extension">
</g>
<g id="plugin">
</g>
<g id="trash">
</g>
<g id="time">
</g>
<g id="calendar">
</g>
<g id="print">
</g>
<g id="file">
</g>
<g id="order">
</g>
<g id="clipboard">
</g>
<g id="folder">
</g>
<g id="camera">
</g>
<g id="video">
</g>
<g id="gallery">
</g>
<g id="image">
</g>
<g id="eye-close">
</g>
<g id="eye">
</g>
<g id="crop">
</g>
<g id="pencil">
</g>
<g id="edit">
</g>
<g id="replay">
</g>
<g id="graph-down">
</g>
<g id="graph-up">
</g>
<g id="sort-des">
</g>
<g id="sort-asc">
</g>
<g id="upload">
</g>
<g id="download">
</g>
<g id="zoom-out">
</g>
<g id="zoom-in">
</g>
<g id="search">
</g>
<g id="briefcase">
</g>
<g id="shopping-cart">
</g>
<g id="home">
</g>
<g id="pluse">
</g>
<g id="stats-bars">
</g>
<g id="pie-chart">
</g>
<g id="flag">
</g>
<g id="map">
</g>
<g id="globe">
</g>
<g id="more-vertical">
</g>
<g id="more-horizontal">
</g>
<g id="power">
</g>
<g id="signal">
</g>
<g id="mobile">
</g>
<g id="desktop">
</g>
<g id="arrow-shrink">
</g>
<g id="arrow-expand">
</g>
<g id="contract">
</g>
<g id="expand">
</g>
<g id="fullscreen-exit">
</g>
<g id="fullscreen">
</g>
<g id="layout">
</g>
<g id="menu">
</g>
<g id="grid-4">
</g>
<g id="grid-9">
</g>
<g id="person-add">
</g>
<g id="persons">
</g>
<g id="user">
</g>
<g id="person">
</g>
<g id="draft">
</g>
<g id="email">
</g>
<g id="chat-room">
</g>
<g id="chat-text">
</g>
<g id="chat-working">
</g>
<g id="chat">
</g>
<g id="reply">
</g>
<g id="share">
</g>
<g id="library">
</g>
<g id="tag">
</g>
<g id="bookmark">
</g>
<g id="book">
</g>
<g id="bell">
</g>
<g id="cloud">
</g>
<g id="inbox">
</g>
<g id="dashboard">
</g>
</svg>
