<?xml version="1.0" encoding="utf-8"?>
<!-- Generator: Adobe Illustrator 17.0.0, SVG Export Plug-In . SVG Version: 6.00 Build 0)  -->
<!DOCTYPE svg PUBLIC "-//W3C//DTD SVG 1.1//EN" "http://www.w3.org/Graphics/SVG/1.1/DTD/svg11.dtd">
<svg version="1.1" xmlns="http://www.w3.org/2000/svg" xmlns:xlink="http://www.w3.org/1999/xlink" x="0px" y="0px" width="64px"
	 height="64px" viewBox="0 0 64 64" enable-background="new 0 0 64 64" xml:space="preserve">
<g id="cloud">
</g>
<g id="align-right">
</g>
<g id="align-center">
</g>
<g id="align-left">
</g>
<g id="list-bulleted">
</g>
<g id="list-numbered">
</g>
<g id="indent-decrease">
</g>
<g id="indent-increase">
</g>
<g id="underline">
</g>
<g id="italic">
</g>
<g id="bold">
</g>
<g id="library">
</g>
<g id="memory">
</g>
<g id="grid-two-up">
</g>
<g id="desktop">
</g>
<g id="person">
</g>
<g id="close">
</g>
<g id="check">
</g>
<g id="format-clear">
</g>
<g id="chevron-left">
</g>
<g id="chevron-right">
</g>
<g id="extension">
</g>
<g id="list">
</g>
<g id="briefcase">
</g>
<g id="layout">
</g>
<g id="schedule">
</g>
<g id="remove">
</g>
<g id="power">
</g>
<g id="assignment">
</g>
<g id="insert-emoticon">
</g>
<g id="lock-locked">
</g>
<g id="thumb-up">
</g>
<g id="share">
</g>
<g id="upload">
</g>
<g id="download">
</g>
<g id="reply">
</g>
<g id="add">
</g>
<g id="edit">
</g>
<g id="paperclip">
</g>
<g id="attach-file">
</g>
<g id="replay">
</g>
<g id="star">
</g>
<g id="media">
	<path fill-rule="evenodd" clip-rule="evenodd" d="M60.236,62.118H3.764C1.685,62.118,0,60.433,0,58.353V5.648
		c0-2.081,1.685-3.766,3.764-3.766h56.471C62.315,1.882,64,3.567,64,5.648v52.705C64,60.433,62.315,62.118,60.236,62.118z
		 M54.84,9.414H9.161c-0.901,0-1.631,0.722-1.631,1.612v22.652c2.223,1.294,4.772,2.089,7.529,2.089
		c5.459,0,10.194-2.933,12.835-7.28l0.017,0.018c-0.017,0.02-0.041,0.034-0.058,0.055l5.234,5.121l0.23,0.23
		c-4.104,5.664-10.728,9.387-18.259,9.387c-2.657,0-5.173-0.522-7.529-1.379v11.06c0,0.89,0.73,1.612,1.631,1.612H54.84
		c0.901,0,1.632-0.723,1.632-1.612V33.432c-2.761-3.158-6.771-5.193-11.295-5.193c-4.789,0-9.123,2.16-11.882,5.645l-0.207-0.203
		l-5.176-5.176c4.143-4.802,10.426-7.796,17.265-7.796c4.124,0,7.971,1.132,11.295,3.065V11.027
		C56.471,10.137,55.741,9.414,54.84,9.414z"/>
</g>
<g id="link-intact">
</g>
<g id="movie">
</g>
<g id="audio">
</g>
<g id="favorite">
</g>
<g id="settings">
</g>
<g id="image">
</g>
<g id="videocamera">
</g>
<g id="tag">
</g>
<g id="infomation">
</g>
<g id="inbox">
</g>
<g id="menu">
</g>
<g id="search">
</g>
<g id="notifications">
</g>
<g id="messenge">
</g>
<g id="email">
</g>
<g id="trash">
</g>
<g id="folder">
</g>
<g id="file">
</g>
<g id="vertical-chart">
</g>
<g id="grid-three-up">
</g>
<g id="calendar">
</g>
<g id="plugin">
</g>
<g id="dashboard">
</g>
</svg>
