<?xml version="1.0" encoding="utf-8"?>
<!-- Generator: Adobe Illustrator 17.0.0, SVG Export Plug-In . SVG Version: 6.00 Build 0)  -->
<!DOCTYPE svg PUBLIC "-//W3C//DTD SVG 1.1//EN" "http://www.w3.org/Graphics/SVG/1.1/DTD/svg11.dtd">
<svg version="1.1" xmlns="http://www.w3.org/2000/svg" xmlns:xlink="http://www.w3.org/1999/xlink" x="0px" y="0px" width="64px"
	 height="64px" viewBox="0 0 64 64" enable-background="new 0 0 64 64" xml:space="preserve">
<g id="loop">
</g>
<g id="reload">
</g>
<g id="random">
</g>
<g id="musical">
</g>
<g id="stop">
</g>
<g id="play">
</g>
<g id="pause">
</g>
<g id="volume-off">
</g>
<g id="volume-low">
</g>
<g id="volume-high">
</g>
<g id="unlock">
</g>
<g id="lock">
</g>
<g id="wrench">
</g>
<g id="hammer">
</g>
<g id="settings">
</g>
<g id="memory">
	<path fill-rule="evenodd" clip-rule="evenodd" d="M62,44c1.105,0,2,0.895,2,2v4c0,1.104-0.896,2-2,2h-7.092
		c-0.704,1.194-1.706,2.192-2.908,2.89V62c0,1.104-0.895,2-2,2h-4c-1.104,0-2-0.896-2-2v-6h-8v6c0,1.104-0.895,2-2,2h-4
		c-1.105,0-2-0.896-2-2v-6h-8v6c0,1.104-0.896,2-2,2h-4c-1.105,0-2-0.896-2-2v-7.11c-1.201-0.699-2.204-1.696-2.907-2.89H2
		c-1.105,0-2-0.896-2-2v-4c0-1.105,0.896-2,2-2h6v-8H2c-1.105,0-2-0.896-2-2v-4c0-1.105,0.896-2,2-2h6v-8H2c-1.105,0-2-0.896-2-2v-4
		c0-1.105,0.896-2,2-2h7.093C9.796,10.806,10.799,9.809,12,9.11V2c0-1.105,0.896-2,2-2h4c1.104,0,2,0.895,2,2v6h8V2
		c0-1.105,0.895-2,2-2h4c1.104,0,2,0.895,2,2v6h8V2c0-1.105,0.895-2,2-2h4c1.104,0,2,0.895,2,2v7.109
		c1.201,0.699,2.204,1.697,2.908,2.89H62c1.105,0,2,0.896,2,2v4c0,1.104-0.896,2-2,2h-6v8h6c1.105,0,2,0.895,2,2v4
		c0,1.104-0.896,2-2,2h-6v8H62z"/>
</g>
<g id="extension">
</g>
<g id="plugin">
</g>
<g id="trash">
</g>
<g id="time">
</g>
<g id="calendar">
</g>
<g id="print">
</g>
<g id="file">
</g>
<g id="order">
</g>
<g id="clipboard">
</g>
<g id="folder">
</g>
<g id="camera">
</g>
<g id="video">
</g>
<g id="gallery">
</g>
<g id="image">
</g>
<g id="eye-close">
</g>
<g id="eye">
</g>
<g id="crop">
</g>
<g id="pencil">
</g>
<g id="edit">
</g>
<g id="replay">
</g>
<g id="graph-down">
</g>
<g id="graph-up">
</g>
<g id="sort-des">
</g>
<g id="sort-asc">
</g>
<g id="upload">
</g>
<g id="download">
</g>
<g id="zoom-out">
</g>
<g id="zoom-in">
</g>
<g id="search">
</g>
<g id="briefcase">
</g>
<g id="shopping-cart">
</g>
<g id="home">
</g>
<g id="pluse">
</g>
<g id="stats-bars">
</g>
<g id="pie-chart">
</g>
<g id="flag">
</g>
<g id="map">
</g>
<g id="globe">
</g>
<g id="more-vertical">
</g>
<g id="more-horizontal">
</g>
<g id="power">
</g>
<g id="signal">
</g>
<g id="mobile">
</g>
<g id="desktop">
</g>
<g id="arrow-shrink">
</g>
<g id="arrow-expand">
</g>
<g id="contract">
</g>
<g id="expand">
</g>
<g id="fullscreen-exit">
</g>
<g id="fullscreen">
</g>
<g id="layout">
</g>
<g id="menu">
</g>
<g id="grid-4">
</g>
<g id="grid-9">
</g>
<g id="person-add">
</g>
<g id="persons">
</g>
<g id="user">
</g>
<g id="person">
</g>
<g id="draft">
</g>
<g id="email">
</g>
<g id="chat-room">
</g>
<g id="chat-text">
</g>
<g id="chat-working">
</g>
<g id="chat">
</g>
<g id="reply">
</g>
<g id="share">
</g>
<g id="library">
</g>
<g id="tag">
</g>
<g id="bookmark">
</g>
<g id="book">
</g>
<g id="bell">
</g>
<g id="cloud">
</g>
<g id="inbox">
</g>
<g id="dashboard">
</g>
</svg>
