<?xml version="1.0" encoding="utf-8"?>
<!-- Generator: Adobe Illustrator 17.0.0, SVG Export Plug-In . SVG Version: 6.00 Build 0)  -->
<!DOCTYPE svg PUBLIC "-//W3C//DTD SVG 1.1//EN" "http://www.w3.org/Graphics/SVG/1.1/DTD/svg11.dtd">
<svg version="1.1" xmlns="http://www.w3.org/2000/svg" xmlns:xlink="http://www.w3.org/1999/xlink" x="0px" y="0px" width="64px"
	 height="64px" viewBox="0 0 64 64" enable-background="new 0 0 64 64" xml:space="preserve">
<g id="loop">
</g>
<g id="reload">
</g>
<g id="random">
</g>
<g id="musical">
</g>
<g id="stop">
</g>
<g id="play">
</g>
<g id="pause">
</g>
<g id="volume-off">
</g>
<g id="volume-low">
</g>
<g id="volume-high">
</g>
<g id="unlock">
</g>
<g id="lock">
</g>
<g id="wrench">
</g>
<g id="hammer">
</g>
<g id="settings">
</g>
<g id="memory">
</g>
<g id="extension">
</g>
<g id="plugin">
</g>
<g id="trash">
</g>
<g id="time">
</g>
<g id="calendar">
</g>
<g id="print">
</g>
<g id="file">
</g>
<g id="order">
</g>
<g id="clipboard">
</g>
<g id="folder">
</g>
<g id="camera">
</g>
<g id="video">
</g>
<g id="gallery">
</g>
<g id="image">
</g>
<g id="eye-close">
</g>
<g id="eye">
</g>
<g id="crop">
</g>
<g id="pencil">
</g>
<g id="edit">
</g>
<g id="replay">
</g>
<g id="graph-down">
</g>
<g id="graph-up">
</g>
<g id="sort-des">
</g>
<g id="sort-asc">
</g>
<g id="upload">
</g>
<g id="download">
</g>
<g id="zoom-out">
</g>
<g id="zoom-in">
</g>
<g id="search">
</g>
<g id="briefcase">
</g>
<g id="shopping-cart">
</g>
<g id="home">
</g>
<g id="pluse">
</g>
<g id="stats-bars">
</g>
<g id="pie-chart">
</g>
<g id="flag">
</g>
<g id="map">
</g>
<g id="globe">
</g>
<g id="more-vertical">
</g>
<g id="more-horizontal">
</g>
<g id="power">
</g>
<g id="signal">
</g>
<g id="mobile">
	<path fill-rule="evenodd" clip-rule="evenodd" d="M48,64H16c-4.418,0-8-3.582-8-8V8c0-4.418,3.582-8,8-8h32c4.418,0,8,3.582,8,8v48
		C56,60.418,52.418,64,48,64z M48,16c0-4.418-3.582-8-8-8H24c-4.418,0-8,3.582-8,8v32c0,4.418,3.582,8,8,8h16c4.418,0,8-3.582,8-8
		V16z M20,12h24v8H20V12z M36,52h-8v-8h8V52z"/>
</g>
<g id="desktop">
</g>
<g id="arrow-shrink">
</g>
<g id="arrow-expand">
</g>
<g id="contract">
</g>
<g id="expand">
</g>
<g id="fullscreen-exit">
</g>
<g id="fullscreen">
</g>
<g id="layout">
</g>
<g id="menu">
</g>
<g id="grid-4">
</g>
<g id="grid-9">
</g>
<g id="person-add">
</g>
<g id="persons">
</g>
<g id="user">
</g>
<g id="person">
</g>
<g id="draft">
</g>
<g id="email">
</g>
<g id="chat-room">
</g>
<g id="chat-text">
</g>
<g id="chat-working">
</g>
<g id="chat">
</g>
<g id="reply">
</g>
<g id="share">
</g>
<g id="library">
</g>
<g id="tag">
</g>
<g id="bookmark">
</g>
<g id="book">
</g>
<g id="bell">
</g>
<g id="cloud">
</g>
<g id="inbox">
</g>
<g id="dashboard">
</g>
</svg>
