<?xml version="1.0" encoding="utf-8"?>
<!-- Generator: Adobe Illustrator 17.0.0, SVG Export Plug-In . SVG Version: 6.00 Build 0)  -->
<!DOCTYPE svg PUBLIC "-//W3C//DTD SVG 1.1//EN" "http://www.w3.org/Graphics/SVG/1.1/DTD/svg11.dtd">
<svg version="1.1" xmlns="http://www.w3.org/2000/svg" xmlns:xlink="http://www.w3.org/1999/xlink" x="0px" y="0px" width="64px"
	 height="64px" viewBox="0 0 64 64" enable-background="new 0 0 64 64" xml:space="preserve">
<g id="cloud">
</g>
<g id="align-right">
</g>
<g id="align-center">
</g>
<g id="align-left">
</g>
<g id="list-bulleted">
</g>
<g id="list-numbered">
</g>
<g id="indent-decrease">
</g>
<g id="indent-increase">
</g>
<g id="underline">
</g>
<g id="italic">
</g>
<g id="bold">
</g>
<g id="library">
</g>
<g id="memory">
</g>
<g id="grid-two-up">
</g>
<g id="desktop">
</g>
<g id="person">
</g>
<g id="close">
</g>
<g id="check">
</g>
<g id="format-clear">
</g>
<g id="chevron-left">
</g>
<g id="chevron-right">
</g>
<g id="extension">
</g>
<g id="list">
</g>
<g id="briefcase">
</g>
<g id="layout">
</g>
<g id="schedule">
</g>
<g id="remove">
</g>
<g id="power">
</g>
<g id="assignment">
</g>
<g id="insert-emoticon">
</g>
<g id="lock-locked">
</g>
<g id="thumb-up">
</g>
<g id="share">
</g>
<g id="upload">
</g>
<g id="download">
</g>
<g id="reply">
</g>
<g id="add">
</g>
<g id="edit">
</g>
<g id="paperclip">
	<path fill-rule="evenodd" clip-rule="evenodd" d="M55.427,27.464L39.442,43.449l0,0l-2.906,2.906c-3.21,3.21-8.415,3.21-11.625,0
		l-2.906-2.906c-3.21-3.21-3.21-8.416,0-11.626l17.438-17.438l5.813,5.813L31.692,33.761c-2.14,2.14-3.355,4.396-2.713,5.038
		l0.582,0.581c0.642,0.642,2.897-0.573,5.037-2.712l4.063-4.063l10.953-10.953c2.408-2.408,2.408-6.311,0-8.719l-2.906-2.906
		c-2.408-2.408-6.312-2.408-8.719,0l-7.266,7.266L16.191,31.824c-4.816,4.816-4.816,12.623,0,17.438l2.906,2.906
		c4.816,4.816,12.622,4.816,17.438,0l14.532-14.532l5.813,5.813L42.348,57.981c-8.026,8.026-21.038,8.026-29.063,0l-2.907-2.906
		c-8.025-8.026-8.025-21.038,0-29.064l5.813-5.813l0,0L32.176,4.213c5.618-5.618,14.726-5.618,20.344,0l2.906,2.906
		C61.045,12.737,61.045,21.846,55.427,27.464z"/>
</g>
<g id="attach-file">
</g>
<g id="replay">
</g>
<g id="star">
</g>
<g id="media">
</g>
<g id="link-intact">
</g>
<g id="movie">
</g>
<g id="audio">
</g>
<g id="favorite">
</g>
<g id="settings">
</g>
<g id="image">
</g>
<g id="videocamera">
</g>
<g id="tag">
</g>
<g id="infomation">
</g>
<g id="inbox">
</g>
<g id="menu">
</g>
<g id="search">
</g>
<g id="notifications">
</g>
<g id="messenge">
</g>
<g id="email">
</g>
<g id="trash">
</g>
<g id="folder">
</g>
<g id="file">
</g>
<g id="vertical-chart">
</g>
<g id="grid-three-up">
</g>
<g id="calendar">
</g>
<g id="plugin">
</g>
<g id="dashboard">
</g>
</svg>
