<?xml version="1.0" encoding="utf-8"?>
<!-- Generator: Adobe Illustrator 17.0.0, SVG Export Plug-In . SVG Version: 6.00 Build 0)  -->
<!DOCTYPE svg PUBLIC "-//W3C//DTD SVG 1.1//EN" "http://www.w3.org/Graphics/SVG/1.1/DTD/svg11.dtd">
<svg version="1.1" xmlns="http://www.w3.org/2000/svg" xmlns:xlink="http://www.w3.org/1999/xlink" x="0px" y="0px" width="64px"
	 height="64px" viewBox="0 0 64 64" enable-background="new 0 0 64 64" xml:space="preserve">
<g id="cloud">
</g>
<g id="align-right">
</g>
<g id="align-center">
</g>
<g id="align-left">
</g>
<g id="list-bulleted">
</g>
<g id="list-numbered">
</g>
<g id="indent-decrease">
</g>
<g id="indent-increase">
</g>
<g id="underline">
</g>
<g id="italic">
</g>
<g id="bold">
</g>
<g id="library">
</g>
<g id="memory">
</g>
<g id="grid-two-up">
</g>
<g id="desktop">
</g>
<g id="person">
</g>
<g id="close">
</g>
<g id="check">
</g>
<g id="format-clear">
</g>
<g id="chevron-left">
</g>
<g id="chevron-right">
</g>
<g id="extension">
</g>
<g id="list">
</g>
<g id="briefcase">
</g>
<g id="layout">
</g>
<g id="schedule">
</g>
<g id="remove">
</g>
<g id="power">
</g>
<g id="assignment">
</g>
<g id="insert-emoticon">
</g>
<g id="lock-locked">
</g>
<g id="thumb-up">
</g>
<g id="share">
</g>
<g id="upload">
</g>
<g id="download">
</g>
<g id="reply">
</g>
<g id="add">
</g>
<g id="edit">
</g>
<g id="paperclip">
</g>
<g id="attach-file">
</g>
<g id="replay">
</g>
<g id="star">
</g>
<g id="media">
</g>
<g id="link-intact">
</g>
<g id="movie">
</g>
<g id="audio">
</g>
<g id="favorite">
</g>
<g id="settings">
</g>
<g id="image">
</g>
<g id="videocamera">
</g>
<g id="tag">
</g>
<g id="infomation">
</g>
<g id="inbox">
</g>
<g id="menu">
</g>
<g id="search">
</g>
<g id="notifications">
</g>
<g id="messenge">
</g>
<g id="email">
</g>
<g id="trash">
</g>
<g id="folder">
</g>
<g id="file">
</g>
<g id="vertical-chart">
</g>
<g id="grid-three-up">
</g>
<g id="calendar">
</g>
<g id="plugin">
	<path d="M32,64c-1.266,0-2.458-0.493-3.355-1.388L1.398,35.341c-1.843-1.855-1.843-4.87-0.004-6.72l9.982-9.99
		c0.616-0.615,1.562-0.764,2.336-0.359c0.772,0.404,1.194,1.262,1.042,2.122c-0.102,0.572-0.148,1.031-0.148,1.446
		c0,4.372,3.556,8.007,7.928,8.007c4.375,0,7.57-3.635,7.57-8.007c0-4.38-3.195-7.942-7.57-7.942c-0.409,0-0.866,0.047-1.438,0.149
		c-0.866,0.159-1.716-0.27-2.12-1.042c-0.404-0.775-0.258-1.723,0.359-2.339l9.306-9.319c1.803-1.795,4.92-1.791,6.714-0.004
		l6.814,6.824C43.59,3.743,47.742,0.53,52.626,0.53c6.057,0,10.984,4.935,10.984,10.998c0,4.89-3.206,9.045-7.629,10.467
		l6.618,6.622c1.847,1.854,1.847,4.869,0.002,6.722L35.359,62.611C34.457,63.507,33.266,64,32,64z"/>
</g>
<g id="dashboard">
</g>
</svg>
