<?xml version="1.0" encoding="utf-8"?>
<!-- Generator: Adobe Illustrator 17.0.0, SVG Export Plug-In . SVG Version: 6.00 Build 0)  -->
<!DOCTYPE svg PUBLIC "-//W3C//DTD SVG 1.1//EN" "http://www.w3.org/Graphics/SVG/1.1/DTD/svg11.dtd">
<svg version="1.1" xmlns="http://www.w3.org/2000/svg" xmlns:xlink="http://www.w3.org/1999/xlink" x="0px" y="0px" width="64px"
	 height="64px" viewBox="0 0 64 64" enable-background="new 0 0 64 64" xml:space="preserve">
<g id="cloud">
</g>
<g id="align-right">
</g>
<g id="align-center">
</g>
<g id="align-left">
</g>
<g id="list-bulleted">
</g>
<g id="list-numbered">
</g>
<g id="indent-decrease">
</g>
<g id="indent-increase">
</g>
<g id="underline">
</g>
<g id="italic">
</g>
<g id="bold">
</g>
<g id="library">
</g>
<g id="memory">
</g>
<g id="grid-two-up">
</g>
<g id="desktop">
</g>
<g id="person">
</g>
<g id="close">
</g>
<g id="check">
</g>
<g id="format-clear">
</g>
<g id="chevron-left">
</g>
<g id="chevron-right">
</g>
<g id="extension">
</g>
<g id="list">
</g>
<g id="briefcase">
</g>
<g id="layout">
</g>
<g id="schedule">
</g>
<g id="remove">
</g>
<g id="power">
</g>
<g id="assignment">
</g>
<g id="insert-emoticon">
</g>
<g id="lock-locked">
</g>
<g id="thumb-up">
</g>
<g id="share">
</g>
<g id="upload">
</g>
<g id="download">
</g>
<g id="reply">
	<path fill-rule="evenodd" clip-rule="evenodd" d="M63.731,56.362c-0.148,0.948-0.867,1.645-1.854,1.645
		c-0.021,0-0.045,0-0.068-0.001c-1.012-0.032-1.65-0.792-1.736-1.768c-0.068-0.716-4.104-18.265-32.12-18.247c0,0,0,8.895,0,9.999
		c0,1.105-0.896,2-2,2c-0.148,0-0.278-0.054-0.416-0.084l0.003,0.242l-0.499-0.405c-0.236-0.124-0.437-0.289-0.606-0.492
		L0.73,29.989c-0.465-0.369-0.732-0.919-0.73-1.5c0.001-0.58,0.271-1.13,0.736-1.496L24.92,6.151l0.002,0.168
		c0.305-0.189,0.644-0.326,1.03-0.326c1.104,0,2,0.895,2,2c0,1.104,0,9.999,0,9.999c11.622,0.357,22.667,4.743,28.502,11.349
		C65.949,40.092,63.83,55.712,63.731,56.362z"/>
</g>
<g id="add">
</g>
<g id="edit">
</g>
<g id="paperclip">
</g>
<g id="attach-file">
</g>
<g id="replay">
</g>
<g id="star">
</g>
<g id="media">
</g>
<g id="link-intact">
</g>
<g id="movie">
</g>
<g id="audio">
</g>
<g id="favorite">
</g>
<g id="settings">
</g>
<g id="image">
</g>
<g id="videocamera">
</g>
<g id="tag">
</g>
<g id="infomation">
</g>
<g id="inbox">
</g>
<g id="menu">
</g>
<g id="search">
</g>
<g id="notifications">
</g>
<g id="messenge">
</g>
<g id="email">
</g>
<g id="trash">
</g>
<g id="folder">
</g>
<g id="file">
</g>
<g id="vertical-chart">
</g>
<g id="grid-three-up">
</g>
<g id="calendar">
</g>
<g id="plugin">
</g>
<g id="dashboard">
</g>
</svg>
