<?xml version="1.0" encoding="utf-8"?>
<!-- Generator: Adobe Illustrator 17.0.0, SVG Export Plug-In . SVG Version: 6.00 Build 0)  -->
<!DOCTYPE svg PUBLIC "-//W3C//DTD SVG 1.1//EN" "http://www.w3.org/Graphics/SVG/1.1/DTD/svg11.dtd">
<svg version="1.1" xmlns="http://www.w3.org/2000/svg" xmlns:xlink="http://www.w3.org/1999/xlink" x="0px" y="0px" width="64px"
	 height="64px" viewBox="0 0 64 64" enable-background="new 0 0 64 64" xml:space="preserve">
<g id="cloud">
</g>
<g id="align-right">
</g>
<g id="align-center">
</g>
<g id="align-left">
</g>
<g id="list-bulleted">
</g>
<g id="list-numbered">
</g>
<g id="indent-decrease">
</g>
<g id="indent-increase">
</g>
<g id="underline">
</g>
<g id="italic">
</g>
<g id="bold">
</g>
<g id="library">
</g>
<g id="memory">
</g>
<g id="grid-two-up">
</g>
<g id="desktop">
</g>
<g id="person">
</g>
<g id="close">
</g>
<g id="check">
</g>
<g id="format-clear">
</g>
<g id="chevron-left">
</g>
<g id="chevron-right">
</g>
<g id="extension">
</g>
<g id="list">
</g>
<g id="briefcase">
</g>
<g id="layout">
</g>
<g id="schedule">
</g>
<g id="remove">
</g>
<g id="power">
</g>
<g id="assignment">
</g>
<g id="insert-emoticon">
</g>
<g id="lock-locked">
</g>
<g id="thumb-up">
</g>
<g id="share">
</g>
<g id="upload">
</g>
<g id="download">
</g>
<g id="reply">
</g>
<g id="add">
</g>
<g id="edit">
</g>
<g id="paperclip">
</g>
<g id="attach-file">
</g>
<g id="replay">
	<path fill-rule="evenodd" clip-rule="evenodd" d="M60,8.004h-7.089c6.753,5.831,11.088,14.359,11.088,23.993
		c0,17.675-14.327,32-31.999,32c-17.673,0-32-14.325-32-32C0,15.682,12.219,2.247,28,0.274v8.132
		C16.66,10.32,8.001,20.121,8.001,32.002c0,13.255,10.745,24,24,24c13.254,0,24-10.745,24-24c0-8.855-4.853-16.49-12-20.629v8.63
		c0.009,2.09-1.789,3.99-4,4c-2.211,0.008-3.991-1.906-4-4V4.004c-0.005-1.152,0.58-2.186,1.449-2.916
		c0.705-0.641,1.59-1.081,2.55-1.085h20c2.108-0.006,3.991,1.881,4,4C64.009,6.125,62.107,7.995,60,8.004z"/>
</g>
<g id="star">
</g>
<g id="media">
</g>
<g id="link-intact">
</g>
<g id="movie">
</g>
<g id="audio">
</g>
<g id="favorite">
</g>
<g id="settings">
</g>
<g id="image">
</g>
<g id="videocamera">
</g>
<g id="tag">
</g>
<g id="infomation">
</g>
<g id="inbox">
</g>
<g id="menu">
</g>
<g id="search">
</g>
<g id="notifications">
</g>
<g id="messenge">
</g>
<g id="email">
</g>
<g id="trash">
</g>
<g id="folder">
</g>
<g id="file">
</g>
<g id="vertical-chart">
</g>
<g id="grid-three-up">
</g>
<g id="calendar">
</g>
<g id="plugin">
</g>
<g id="dashboard">
</g>
</svg>
