<?xml version="1.0" encoding="utf-8"?>
<!-- Generator: Adobe Illustrator 17.0.0, SVG Export Plug-In . SVG Version: 6.00 Build 0)  -->
<!DOCTYPE svg PUBLIC "-//W3C//DTD SVG 1.1//EN" "http://www.w3.org/Graphics/SVG/1.1/DTD/svg11.dtd">
<svg version="1.1" xmlns="http://www.w3.org/2000/svg" xmlns:xlink="http://www.w3.org/1999/xlink" x="0px" y="0px" width="64px"
	 height="64px" viewBox="0 0 64 64" enable-background="new 0 0 64 64" xml:space="preserve">
<g id="cloud">
</g>
<g id="align-right">
</g>
<g id="align-center">
</g>
<g id="align-left">
</g>
<g id="list-bulleted">
</g>
<g id="list-numbered">
</g>
<g id="indent-decrease">
</g>
<g id="indent-increase">
</g>
<g id="underline">
</g>
<g id="italic">
</g>
<g id="bold">
</g>
<g id="library">
</g>
<g id="memory">
</g>
<g id="grid-two-up">
</g>
<g id="desktop">
</g>
<g id="person">
</g>
<g id="close">
</g>
<g id="check">
</g>
<g id="format-clear">
</g>
<g id="chevron-left">
</g>
<g id="chevron-right">
</g>
<g id="extension">
</g>
<g id="list">
</g>
<g id="briefcase">
</g>
<g id="layout">
</g>
<g id="schedule">
</g>
<g id="remove">
</g>
<g id="power">
</g>
<g id="assignment">
</g>
<g id="insert-emoticon">
</g>
<g id="lock-locked">
</g>
<g id="thumb-up">
</g>
<g id="share">
</g>
<g id="upload">
</g>
<g id="download">
</g>
<g id="reply">
</g>
<g id="add">
</g>
<g id="edit">
</g>
<g id="paperclip">
</g>
<g id="attach-file">
</g>
<g id="replay">
</g>
<g id="star">
</g>
<g id="media">
</g>
<g id="link-intact">
</g>
<g id="movie">
</g>
<g id="audio">
</g>
<g id="favorite">
</g>
<g id="settings">
</g>
<g id="image">
</g>
<g id="videocamera">
</g>
<g id="tag">
</g>
<g id="infomation">
</g>
<g id="inbox">
</g>
<g id="menu">
</g>
<g id="search">
	<path fill-rule="evenodd" clip-rule="evenodd" d="M59.421,56.624l-2.797,2.797c-0.773,0.773-2.025,0.773-2.797,0L41.451,47.045
		c-3.879,2.761-8.593,4.422-13.717,4.422C14.627,51.468,4,40.842,4,27.734C4,14.626,14.627,4,27.734,4s23.734,10.626,23.734,23.734
		c0,5.124-1.661,9.838-4.423,13.717l12.375,12.375C60.193,54.599,60.193,55.851,59.421,56.624z M27.734,11.912
		c-8.738,0-15.823,7.084-15.823,15.823c0,8.738,7.084,15.823,15.823,15.823s15.823-7.084,15.823-15.823
		C43.557,18.995,36.473,11.912,27.734,11.912z"/>
</g>
<g id="notifications">
</g>
<g id="messenge">
</g>
<g id="email">
</g>
<g id="trash">
</g>
<g id="folder">
</g>
<g id="file">
</g>
<g id="vertical-chart">
</g>
<g id="grid-three-up">
</g>
<g id="calendar">
</g>
<g id="plugin">
</g>
<g id="dashboard">
</g>
</svg>
