<?xml version="1.0" encoding="utf-8"?>
<!-- Generator: Adobe Illustrator 17.0.0, SVG Export Plug-In . SVG Version: 6.00 Build 0)  -->
<!DOCTYPE svg PUBLIC "-//W3C//DTD SVG 1.1//EN" "http://www.w3.org/Graphics/SVG/1.1/DTD/svg11.dtd">
<svg version="1.1" xmlns="http://www.w3.org/2000/svg" xmlns:xlink="http://www.w3.org/1999/xlink" x="0px" y="0px" width="64px"
	 height="64px" viewBox="0 0 64 64" enable-background="new 0 0 64 64" xml:space="preserve">
<g id="loop">
</g>
<g id="reload">
</g>
<g id="random">
</g>
<g id="musical">
</g>
<g id="stop">
</g>
<g id="play">
</g>
<g id="pause">
</g>
<g id="volume-off">
</g>
<g id="volume-low">
</g>
<g id="volume-high">
</g>
<g id="unlock">
</g>
<g id="lock">
</g>
<g id="wrench">
</g>
<g id="hammer">
</g>
<g id="settings">
	<path fill-rule="evenodd" clip-rule="evenodd" d="M62,36h-6.362c-0.614,3.638-2.067,6.978-4.122,9.858l4.527,4.527
		c0.781,0.781,0.781,2.047,0,2.828l-2.828,2.828c-0.781,0.781-2.048,0.781-2.828,0l-4.54-4.54c-2.88,2.039-6.216,3.482-9.845,4.095
		V62c0,1.105-0.896,2-2,2h-4c-1.105,0-2-0.896-2-2v-6.403c-3.63-0.612-6.966-2.056-9.846-4.095l-4.539,4.54
		c-0.781,0.781-2.047,0.781-2.828,0l-2.829-2.828c-0.781-0.781-0.781-2.048,0-2.828l4.527-4.527c-2.056-2.88-3.508-6.22-4.122-9.858
		H2c-1.105,0-2-0.896-2-2v-4c0-1.105,0.895-2,2-2h6.362c0.614-3.638,2.067-6.979,4.123-9.858l-4.527-4.527
		c-0.781-0.781-0.781-2.047,0-2.828l2.829-2.829c0.781-0.781,2.047-0.781,2.828,0l4.54,4.54c2.88-2.039,6.215-3.482,9.845-4.094V2
		c0-1.105,0.895-2,2-2h4c1.104,0,2,0.895,2,2v6.403c3.63,0.612,6.966,2.055,9.845,4.094l4.54-4.54c0.781-0.781,2.047-0.781,2.828,0
		l2.828,2.829c0.781,0.781,0.781,2.047,0,2.828l-4.527,4.527c2.056,2.879,3.508,6.22,4.122,9.858H62c1.105,0,2,0.895,2,2v4
		C64,35.104,63.104,36,62,36z M32,20c-6.628,0-12,5.372-12,12c0,6.628,5.372,12,12,12c6.627,0,12-5.373,12-12
		C44,25.372,38.627,20,32,20z"/>
</g>
<g id="memory">
</g>
<g id="extension">
</g>
<g id="plugin">
</g>
<g id="trash">
</g>
<g id="time">
</g>
<g id="calendar">
</g>
<g id="print">
</g>
<g id="file">
</g>
<g id="order">
</g>
<g id="clipboard">
</g>
<g id="folder">
</g>
<g id="camera">
</g>
<g id="video">
</g>
<g id="gallery">
</g>
<g id="image">
</g>
<g id="eye-close">
</g>
<g id="eye">
</g>
<g id="crop">
</g>
<g id="pencil">
</g>
<g id="edit">
</g>
<g id="replay">
</g>
<g id="graph-down">
</g>
<g id="graph-up">
</g>
<g id="sort-des">
</g>
<g id="sort-asc">
</g>
<g id="upload">
</g>
<g id="download">
</g>
<g id="zoom-out">
</g>
<g id="zoom-in">
</g>
<g id="search">
</g>
<g id="briefcase">
</g>
<g id="shopping-cart">
</g>
<g id="home">
</g>
<g id="pluse">
</g>
<g id="stats-bars">
</g>
<g id="pie-chart">
</g>
<g id="flag">
</g>
<g id="map">
</g>
<g id="globe">
</g>
<g id="more-vertical">
</g>
<g id="more-horizontal">
</g>
<g id="power">
</g>
<g id="signal">
</g>
<g id="mobile">
</g>
<g id="desktop">
</g>
<g id="arrow-shrink">
</g>
<g id="arrow-expand">
</g>
<g id="contract">
</g>
<g id="expand">
</g>
<g id="fullscreen-exit">
</g>
<g id="fullscreen">
</g>
<g id="layout">
</g>
<g id="menu">
</g>
<g id="grid-4">
</g>
<g id="grid-9">
</g>
<g id="person-add">
</g>
<g id="persons">
</g>
<g id="user">
</g>
<g id="person">
</g>
<g id="draft">
</g>
<g id="email">
</g>
<g id="chat-room">
</g>
<g id="chat-text">
</g>
<g id="chat-working">
</g>
<g id="chat">
</g>
<g id="reply">
</g>
<g id="share">
</g>
<g id="library">
</g>
<g id="tag">
</g>
<g id="bookmark">
</g>
<g id="book">
</g>
<g id="bell">
</g>
<g id="cloud">
</g>
<g id="inbox">
</g>
<g id="dashboard">
</g>
</svg>
