<?xml version="1.0" encoding="utf-8"?>
<!-- Generator: Adobe Illustrator 17.0.0, SVG Export Plug-In . SVG Version: 6.00 Build 0)  -->
<!DOCTYPE svg PUBLIC "-//W3C//DTD SVG 1.1//EN" "http://www.w3.org/Graphics/SVG/1.1/DTD/svg11.dtd">
<svg version="1.1" xmlns="http://www.w3.org/2000/svg" xmlns:xlink="http://www.w3.org/1999/xlink" x="0px" y="0px" width="64px"
	 height="64px" viewBox="0 0 64 64" enable-background="new 0 0 64 64" xml:space="preserve">
<g id="cloud">
</g>
<g id="align-right">
</g>
<g id="align-center">
</g>
<g id="align-left">
</g>
<g id="list-bulleted">
</g>
<g id="list-numbered">
</g>
<g id="indent-decrease">
</g>
<g id="indent-increase">
</g>
<g id="underline">
</g>
<g id="italic">
</g>
<g id="bold">
</g>
<g id="library">
</g>
<g id="memory">
</g>
<g id="grid-two-up">
</g>
<g id="desktop">
</g>
<g id="person">
</g>
<g id="close">
</g>
<g id="check">
</g>
<g id="format-clear">
</g>
<g id="chevron-left">
</g>
<g id="chevron-right">
</g>
<g id="extension">
</g>
<g id="list">
</g>
<g id="briefcase">
</g>
<g id="layout">
</g>
<g id="schedule">
</g>
<g id="remove">
</g>
<g id="power">
</g>
<g id="assignment">
</g>
<g id="insert-emoticon">
</g>
<g id="lock-locked">
</g>
<g id="thumb-up">
</g>
<g id="share">
</g>
<g id="upload">
</g>
<g id="download">
</g>
<g id="reply">
</g>
<g id="add">
</g>
<g id="edit">
</g>
<g id="paperclip">
</g>
<g id="attach-file">
</g>
<g id="replay">
</g>
<g id="star">
</g>
<g id="media">
</g>
<g id="link-intact">
</g>
<g id="movie">
</g>
<g id="audio">
</g>
<g id="favorite">
</g>
<g id="settings">
	<path fill-rule="evenodd" clip-rule="evenodd" d="M62,36h-6.362c-0.614,3.638-2.067,6.978-4.122,9.858l4.527,4.527
		c0.781,0.781,0.781,2.047,0,2.828l-2.828,2.828c-0.781,0.781-2.048,0.781-2.828,0l-4.54-4.54c-2.88,2.039-6.216,3.482-9.845,4.095
		V62c0,1.105-0.896,2-2,2h-4c-1.105,0-2-0.896-2-2v-6.403c-3.63-0.612-6.966-2.056-9.846-4.095l-4.539,4.54
		c-0.781,0.781-2.047,0.781-2.828,0l-2.829-2.828c-0.781-0.781-0.781-2.048,0-2.828l4.527-4.527c-2.056-2.88-3.508-6.22-4.122-9.858
		H2c-1.105,0-2-0.896-2-2v-4c0-1.105,0.895-2,2-2h6.362c0.614-3.638,2.067-6.979,4.123-9.858l-4.527-4.527
		c-0.781-0.781-0.781-2.047,0-2.828l2.829-2.829c0.781-0.781,2.047-0.781,2.828,0l4.54,4.54c2.88-2.039,6.215-3.482,9.845-4.094V2
		c0-1.105,0.895-2,2-2h4c1.104,0,2,0.895,2,2v6.403c3.63,0.612,6.966,2.055,9.845,4.094l4.54-4.54c0.781-0.781,2.047-0.781,2.828,0
		l2.828,2.829c0.781,0.781,0.781,2.047,0,2.828l-4.527,4.527c2.056,2.879,3.508,6.22,4.122,9.858H62c1.105,0,2,0.895,2,2v4
		C64,35.104,63.104,36,62,36z M32,20c-6.628,0-12,5.372-12,12c0,6.628,5.372,12,12,12c6.627,0,12-5.373,12-12
		C44,25.372,38.627,20,32,20z"/>
</g>
<g id="image">
</g>
<g id="videocamera">
</g>
<g id="tag">
</g>
<g id="infomation">
</g>
<g id="inbox">
</g>
<g id="menu">
</g>
<g id="search">
</g>
<g id="notifications">
</g>
<g id="messenge">
</g>
<g id="email">
</g>
<g id="trash">
</g>
<g id="folder">
</g>
<g id="file">
</g>
<g id="vertical-chart">
</g>
<g id="grid-three-up">
</g>
<g id="calendar">
</g>
<g id="plugin">
</g>
<g id="dashboard">
</g>
</svg>
