<?xml version="1.0" encoding="utf-8"?>
<!-- Generator: Adobe Illustrator 17.0.0, SVG Export Plug-In . SVG Version: 6.00 Build 0)  -->
<!DOCTYPE svg PUBLIC "-//W3C//DTD SVG 1.1//EN" "http://www.w3.org/Graphics/SVG/1.1/DTD/svg11.dtd">
<svg version="1.1" xmlns="http://www.w3.org/2000/svg" xmlns:xlink="http://www.w3.org/1999/xlink" x="0px" y="0px" width="64px"
	 height="64px" viewBox="0 0 64 64" enable-background="new 0 0 64 64" xml:space="preserve">
<g id="thumb-down">
</g>
<g id="thumb-up">
	<path fill-rule="evenodd" clip-rule="evenodd" d="M56,55.607c0,4.418-3.582,8-8,8h-28c-2.954,0-5.506-1.62-6.891-4.002H6
		c-3.314,0-6-2.686-6-6v-24c0-3.314,2.686-6,6-6h5.032c2.22-2.932,4.909-6.486,5.337-7.063C19.311,12.578,26.6,2.758,26.6,2.758
		c3.159-3.153,8.281-3.153,11.441,0c3.159,3.152,3.159,8.263,0,11.414l-4.033,5.435H56c4.418,0,8,3.582,8,8L56,55.607z"/>
</g>
<g id="star-outline">
</g>
<g id="star-half">
</g>
<g id="star">
</g>
<g id="favorite-outline">
</g>
<g id="favorite">
</g>
<g id="warning">
</g>
<g id="info">
</g>
<g id="info-circle">
</g>
<g id="help">
</g>
<g id="help-circle">
</g>
<g id="alert">
</g>
<g id="alert-circle">
</g>
<g id="remove">
</g>
<g id="remove-circle">
</g>
<g id="add">
</g>
<g id="add-circle">
</g>
<g id="close-mini">
</g>
<g id="close">
</g>
<g id="close-circle">
</g>
<g id="check-mini">
</g>
<g id="check">
</g>
<g id="check-circle">
</g>
<g id="triangle-up">
</g>
<g id="triangle-down">
</g>
<g id="triangle-right">
</g>
<g id="triangle-left">
</g>
<g id="sort-vertical">
</g>
<g id="dropleft">
</g>
<g id="dropright">
</g>
<g id="dropup">
</g>
<g id="dropdown">
</g>
<g id="arrow-right">
</g>
<g id="arrow-left">
</g>
<g id="chevron-down-mini">
</g>
<g id="chevron-up-mini">
</g>
<g id="chevron-down">
</g>
<g id="chevron-up">
</g>
<g id="chevron-right-mini">
</g>
<g id="chevron-left-mini">
</g>
<g id="chevron-right">
</g>
<g id="chevron-left">
</g>
<g id="code-unfold">
</g>
<g id="code-working">
</g>
<g id="code">
</g>
<g id="quote-left">
</g>
<g id="quote-right">
</g>
<g id="emoticon">
</g>
<g id="list">
</g>
<g id="list-bulleted">
</g>
<g id="list-numbered">
</g>
<g id="align-right">
</g>
<g id="align-center">
</g>
<g id="align-left">
</g>
<g id="align-justify">
</g>
<g id="indent-decrease">
</g>
<g id="indent-increase">
</g>
<g id="link-intact">
</g>
<g id="paperclip">
</g>
<g id="attach-file">
</g>
<g id="table">
</g>
<g id="text-type">
</g>
<g id="format-clear">
</g>
<g id="underline">
</g>
<g id="italic">
</g>
<g id="bold">
</g>
<g id="text">
</g>
<g id="图层_1">
</g>
</svg>
