<?xml version="1.0" encoding="utf-8"?>
<!-- Generator: Adobe Illustrator 17.0.0, SVG Export Plug-In . SVG Version: 6.00 Build 0)  -->
<!DOCTYPE svg PUBLIC "-//W3C//DTD SVG 1.1//EN" "http://www.w3.org/Graphics/SVG/1.1/DTD/svg11.dtd">
<svg version="1.1" xmlns="http://www.w3.org/2000/svg" xmlns:xlink="http://www.w3.org/1999/xlink" x="0px" y="0px" width="64px"
	 height="64px" viewBox="0 0 64 64" enable-background="new 0 0 64 64" xml:space="preserve">
<g id="loop">
</g>
<g id="reload">
</g>
<g id="random">
</g>
<g id="musical">
</g>
<g id="stop">
</g>
<g id="play">
</g>
<g id="pause">
</g>
<g id="volume-off">
</g>
<g id="volume-low">
</g>
<g id="volume-high">
</g>
<g id="unlock">
</g>
<g id="lock">
</g>
<g id="wrench">
</g>
<g id="hammer">
</g>
<g id="settings">
</g>
<g id="memory">
</g>
<g id="extension">
</g>
<g id="plugin">
</g>
<g id="trash">
</g>
<g id="time">
</g>
<g id="calendar">
</g>
<g id="print">
</g>
<g id="file">
</g>
<g id="order">
</g>
<g id="clipboard">
</g>
<g id="folder">
</g>
<g id="camera">
</g>
<g id="video">
</g>
<g id="gallery">
</g>
<g id="image">
</g>
<g id="eye-close">
</g>
<g id="eye">
</g>
<g id="crop">
</g>
<g id="pencil">
</g>
<g id="edit">
</g>
<g id="replay">
</g>
<g id="graph-down">
</g>
<g id="graph-up">
</g>
<g id="sort-des">
</g>
<g id="sort-asc">
</g>
<g id="upload">
	<path fill-rule="evenodd" clip-rule="evenodd" d="M62,59.81h-4H6H2H0v-2v-6v-14c0-1.105,0.895-2,2-2h4c1.104,0,2,0.895,2,2v14H56
		v-14c0-1.105,0.895-2,2-2h4c1.104,0,2,0.895,2,2v14v6v2H62z M41.116,22.867l-5.209-5.284v22.264c0,2.19-1.749,3.964-3.906,3.964
		c-2.158,0-3.906-1.774-3.906-3.964V17.583l-5.209,5.284c-1.49,1.512-3.905,1.512-5.394,0c-1.49-1.512-1.49-3.961,0-5.471
		L28.836,5.886c0.129-0.188,0.207-0.401,0.372-0.569c0.76-0.769,1.76-1.135,2.756-1.119c0.013,0,0.023-0.009,0.036-0.009
		c0.014,0,0.026,0.008,0.04,0.008c0.994-0.014,1.993,0.352,2.752,1.12c0.161,0.163,0.232,0.371,0.358,0.554L46.51,17.396
		c1.49,1.51,1.49,3.959,0,5.471C45.021,24.379,42.605,24.379,41.116,22.867z"/>
</g>
<g id="download">
</g>
<g id="zoom-out">
</g>
<g id="zoom-in">
</g>
<g id="search">
</g>
<g id="briefcase">
</g>
<g id="shopping-cart">
</g>
<g id="home">
</g>
<g id="pluse">
</g>
<g id="stats-bars">
</g>
<g id="pie-chart">
</g>
<g id="flag">
</g>
<g id="map">
</g>
<g id="globe">
</g>
<g id="more-vertical">
</g>
<g id="more-horizontal">
</g>
<g id="power">
</g>
<g id="signal">
</g>
<g id="mobile">
</g>
<g id="desktop">
</g>
<g id="arrow-shrink">
</g>
<g id="arrow-expand">
</g>
<g id="contract">
</g>
<g id="expand">
</g>
<g id="fullscreen-exit">
</g>
<g id="fullscreen">
</g>
<g id="layout">
</g>
<g id="menu">
</g>
<g id="grid-4">
</g>
<g id="grid-9">
</g>
<g id="person-add">
</g>
<g id="persons">
</g>
<g id="user">
</g>
<g id="person">
</g>
<g id="draft">
</g>
<g id="email">
</g>
<g id="chat-room">
</g>
<g id="chat-text">
</g>
<g id="chat-working">
</g>
<g id="chat">
</g>
<g id="reply">
</g>
<g id="share">
</g>
<g id="library">
</g>
<g id="tag">
</g>
<g id="bookmark">
</g>
<g id="book">
</g>
<g id="bell">
</g>
<g id="cloud">
</g>
<g id="inbox">
</g>
<g id="dashboard">
</g>
</svg>
