<svg xmlns="http://www.w3.org/2000/svg" width="64" height="64" viewBox="0 0 64 64"><path fill-rule="evenodd" clip-rule="evenodd" d="M32,64C14.327,64,0,49.673,0,32S14.327,0,32,0s32,14.327,32,32S49.673,64,32,64z M32,8C18.745,8,8,18.745,8,32c0,5.983,2.268,11.386,5.89,15.59c2.158-4.612,6.008-8.272,10.773-10.157 C21.845,35.237,20,31.849,20,28c0-6.627,5.372-12,12-12c6.627,0,12,5.372,12,12c0,3.85-1.845,7.237-4.663,9.433 c4.765,1.885,8.615,5.546,10.773,10.157C53.731,43.386,56,37.983,56,32C56,18.745,45.255,8,32,8z"/></svg>